<svg width="231" height="45" viewBox="0 0 231 45" fill="none" xmlns="http://www.w3.org/2000/svg">
<path d="M225.137 44.8C224.753 44.8 224.497 44.6293 224.369 44.288L222.065 36.8C222.023 36.672 221.937 36.608 221.809 36.608H203.825C203.697 36.608 203.612 36.672 203.569 36.8L201.265 44.288C201.137 44.6293 200.881 44.8 200.497 44.8H195.313C194.844 44.8 194.673 44.5653 194.801 44.096L208.817 0.512001C208.945 0.170667 209.201 0 209.585 0H215.985C216.369 0 216.625 0.170667 216.753 0.512001L230.897 44.096L230.961 44.352C230.961 44.6507 230.769 44.8 230.385 44.8H225.137ZM205.169 31.424C205.127 31.5093 205.127 31.5947 205.169 31.68C205.255 31.7227 205.34 31.744 205.425 31.744H220.145C220.231 31.744 220.295 31.7227 220.337 31.68C220.423 31.5947 220.444 31.5093 220.401 31.424L212.977 7.68C212.935 7.59467 212.871 7.552 212.785 7.552C212.7 7.552 212.636 7.59467 212.593 7.68L205.169 31.424Z" fill="#F9F9F9"/>
<path d="M177.418 0C177.844 0 178.058 0.213333 178.058 0.639999V4.736C178.058 5.16267 177.844 5.376 177.418 5.376H165.13C164.959 5.376 164.874 5.46133 164.874 5.632V44.16C164.874 44.5867 164.66 44.8 164.234 44.8H159.37C158.943 44.8 158.73 44.5867 158.73 44.16V5.632C158.73 5.46133 158.644 5.376 158.474 5.376H146.762C146.335 5.376 146.122 5.16267 146.122 4.736V0.639999C146.122 0.213333 146.335 0 146.762 0H177.418Z" fill="#F9F9F9"/>
<path d="M116.243 0.639999C116.243 0.213333 116.456 0 116.883 0H121.747C122.174 0 122.387 0.213333 122.387 0.639999V44.16C122.387 44.5867 122.174 44.8 121.747 44.8H117.075C116.776 44.8 116.52 44.6507 116.307 44.352L96.275 11.648C96.2323 11.52 96.1683 11.4773 96.083 11.52C95.9977 11.52 95.955 11.584 95.955 11.712L96.019 44.16C96.019 44.5867 95.8057 44.8 95.379 44.8H90.515C90.0883 44.8 89.875 44.5867 89.875 44.16V0.639999C89.875 0.213333 90.0883 0 90.515 0H95.251C95.5497 0 95.8057 0.149334 96.019 0.448002L115.987 33.152C116.03 33.28 116.094 33.344 116.179 33.344C116.264 33.3013 116.307 33.216 116.307 33.088L116.243 0.639999Z" fill="#F9F9F9"/>
<path d="M57.89 44.8C57.4633 44.8 57.25 44.5867 57.25 44.16V0.639999C57.25 0.213333 57.4633 0 57.89 0H62.754C63.1807 0 63.394 0.213333 63.394 0.639999V44.16C63.394 44.5867 63.1807 44.8 62.754 44.8H57.89Z" fill="#F9F9F9"/>
<path d="M24.896 0.639999C24.896 0.213333 25.1093 0 25.536 0H30.4C30.8267 0 31.04 0.213333 31.04 0.639999V44.16C31.04 44.5867 30.8267 44.8 30.4 44.8H25.536C25.1093 44.8 24.896 44.5867 24.896 44.16V25.152C24.896 24.9813 24.8107 24.896 24.64 24.896H6.4C6.22933 24.896 6.144 24.9813 6.144 25.152V44.16C6.144 44.5867 5.93067 44.8 5.504 44.8H0.64C0.213333 44.8 0 44.5867 0 44.16V0.639999C0 0.213333 0.213333 0 0.64 0H5.504C5.93067 0 6.144 0.213333 6.144 0.639999V19.328C6.144 19.4987 6.22933 19.584 6.4 19.584H24.64C24.8107 19.584 24.896 19.4987 24.896 19.328V0.639999Z" fill="#F9F9F9"/>
</svg>
