<svg width="233" height="47" viewBox="0 0 233 47" fill="none" xmlns="http://www.w3.org/2000/svg">
<path d="M210.586 0V1L210.447 1.00781C210.139 1.04519 209.929 1.21314 209.817 1.51172L195.802 45.0957C195.69 45.5064 195.806 45.7377 196.151 45.7891L196.314 45.7998H201.497C201.833 45.7998 202.072 45.6695 202.212 45.4082L202.266 45.2881L204.569 37.7998C204.612 37.6719 204.697 37.6075 204.825 37.6074H222.81C222.938 37.6075 223.023 37.6718 223.066 37.7998L225.369 45.2881C225.481 45.5865 225.691 45.7546 225.999 45.792L226.138 45.7998H231.386L231.521 45.793C231.772 45.765 231.916 45.6529 231.952 45.457L231.962 45.3516L231.898 45.0957L217.754 1.51172C217.642 1.21292 217.431 1.04505 217.123 1.00781L216.985 1V0C217.326 0 217.692 0.0766716 218.021 0.295898C218.312 0.490163 218.512 0.754192 218.64 1.03809L218.69 1.16113L218.697 1.18164L218.705 1.20312L232.859 44.8203L232.867 44.8535L232.932 45.1094L232.962 45.2285V45.3516L232.955 45.4971C232.924 45.8396 232.777 46.2087 232.432 46.4775C232.084 46.7476 231.68 46.7998 231.386 46.7998H226.138C225.797 46.7998 225.431 46.7231 225.103 46.5039C224.811 46.3097 224.612 46.0456 224.483 45.7617L224.434 45.6387L224.423 45.6104L224.414 45.582L222.268 38.6074H205.367L203.222 45.582L203.202 45.6387C203.079 45.9684 202.865 46.2819 202.532 46.5039C202.203 46.7231 201.838 46.7998 201.497 46.7998H196.314C195.958 46.7998 195.391 46.7154 195.025 46.2119C194.669 45.7234 194.746 45.1669 194.837 44.833L194.843 44.8105L194.85 44.79L208.865 1.20605L208.873 1.18262L208.881 1.16113C209.005 0.831419 209.218 0.517859 209.551 0.295898C209.88 0.076672 210.246 0 210.586 0ZM213.785 8.55176C213.871 8.55176 213.935 8.59439 213.978 8.67969L221.401 32.4238C221.444 32.5091 221.423 32.5944 221.338 32.6797L221.302 32.708C221.262 32.7321 221.21 32.7441 221.146 32.7441H206.426L206.361 32.7402C206.298 32.7322 206.234 32.7116 206.17 32.6797C206.138 32.6158 206.13 32.5521 206.146 32.4883L206.17 32.4238L213.594 8.67969C213.636 8.59459 213.7 8.55186 213.785 8.55176ZM207.43 31.7441H220.142L213.785 11.416L207.43 31.7441ZM216.985 0V1H210.586V0H216.985Z" fill="#0F0F0F"/>
<path d="M178.417 0V1H147.762V0H178.417ZM159.729 45.1602C159.73 45.5865 159.943 45.7997 160.369 45.7998H165.233C165.607 45.7998 165.817 45.6364 165.863 45.3096L165.873 45.1602V6.63184C165.873 6.48255 165.939 6.39859 166.069 6.37988L166.13 6.37598H178.417L178.567 6.36621C178.847 6.32624 179.008 6.16585 179.048 5.88574L179.058 5.73535V1.63965C179.058 1.26638 178.894 1.0564 178.567 1.00977L178.417 1V0C178.784 0 179.244 0.0927787 179.604 0.453125C179.92 0.76839 180.03 1.1591 180.053 1.49805L180.058 1.63965V5.73535L180.053 5.87793C180.03 6.21686 179.92 6.60767 179.604 6.92285C179.244 7.28319 178.784 7.37598 178.417 7.37598H166.873V45.1602L166.869 45.3018C166.846 45.6406 166.736 46.0315 166.421 46.3467C166.061 46.707 165.601 46.7998 165.233 46.7998H160.369C160.002 46.7998 159.543 46.7069 159.183 46.3467C158.822 45.9864 158.73 45.5276 158.729 45.1602V7.37598H147.762C147.394 7.37598 146.935 7.2832 146.574 6.92285C146.214 6.56252 146.121 6.1028 146.121 5.73535V1.63965C146.121 1.27229 146.214 0.813379 146.574 0.453125C146.935 0.0927788 147.394 0 147.762 0V1L147.611 1.00977C147.285 1.05646 147.121 1.26646 147.121 1.63965V5.73535C147.121 6.10866 147.285 6.31953 147.611 6.36621L147.762 6.37598H159.474C159.644 6.37604 159.729 6.46123 159.729 6.63184V45.1602Z" fill="#0F0F0F"/>
<path d="M90.8848 45.3096C90.9313 45.6363 91.1414 45.7997 91.5146 45.7998H96.3789C96.7523 45.7998 96.9622 45.6364 97.0088 45.3096L97.0186 45.1602L96.9551 12.7119C96.9551 12.6158 96.9792 12.5562 97.0273 12.5322L97.083 12.5195C97.1682 12.477 97.2327 12.5197 97.2754 12.6475L117.307 45.3516C117.493 45.6129 117.713 45.7603 117.965 45.793L118.075 45.7998H122.747L122.896 45.79C123.177 45.7501 123.337 45.5899 123.377 45.3096L123.387 45.1602V1.63965C123.387 1.26623 123.223 1.05629 122.896 1.00977L122.747 1V0C123.115 1.92149e-05 123.573 0.0928319 123.934 0.453125C124.294 0.813421 124.387 1.2722 124.387 1.63965V45.1602L124.382 45.3018C124.359 45.6407 124.249 46.0315 123.934 46.3467C123.573 46.7069 123.114 46.7998 122.747 46.7998H118.075C117.378 46.7998 116.846 46.4264 116.493 45.9326L116.473 45.9043L97.96 15.6816L98.0186 45.1582V45.1602L98.0146 45.3018C97.992 45.6406 97.8814 46.0315 97.5664 46.3467C97.2061 46.707 96.7464 46.7998 96.3789 46.7998H91.5146C91.1472 46.7998 90.6884 46.7069 90.3281 46.3467C89.9679 45.9864 89.8751 45.5276 89.875 45.1602V1.63965C89.875 1.27222 89.9679 0.81341 90.3281 0.453125C90.6884 0.0928788 91.1472 5.12378e-05 91.5146 0V1L91.3652 1.00977C91.0384 1.05635 90.875 1.2663 90.875 1.63965V45.1602L90.8848 45.3096ZM117.883 1L117.733 1.00977C117.406 1.0563 117.243 1.26624 117.243 1.63965L117.307 34.0879L117.299 34.1758C117.283 34.2558 117.243 34.3118 117.179 34.3438C117.093 34.3436 117.03 34.2792 116.987 34.1514L97.0186 1.44824C96.832 1.18704 96.6132 1.0396 96.3613 1.00684L96.251 1V0L96.3799 0.00390625C96.9292 0.0410496 97.3696 0.314029 97.6924 0.6875L97.833 0.866211L97.8535 0.895508L97.8721 0.926758L116.301 31.1084L116.243 1.6416V1.63965C116.243 1.2722 116.336 0.813421 116.696 0.453125C117.057 0.0928296 117.515 2.36985e-05 117.883 0V1ZM122.747 0V1H117.883V0H122.747ZM96.251 0V1H91.5146V0H96.251Z" fill="#0F0F0F"/>
<path d="M58.2598 45.3096C58.3063 45.6363 58.5164 45.7997 58.8896 45.7998H63.7539C64.1273 45.7998 64.3372 45.6364 64.3838 45.3096L64.3936 45.1602V1.63965C64.3935 1.26654 64.2307 1.05652 63.9043 1.00977L63.7539 1V0C64.1214 0 64.5811 0.0927787 64.9414 0.453125C65.3014 0.813363 65.3935 1.27233 65.3936 1.63965V45.1602L65.3896 45.3018C65.367 45.6406 65.2564 46.0315 64.9414 46.3467C64.5811 46.707 64.1214 46.7998 63.7539 46.7998H58.8896C58.5222 46.7998 58.0634 46.7069 57.7031 46.3467C57.3429 45.9864 57.2501 45.5276 57.25 45.1602V1.63965C57.25 1.27222 57.3429 0.81341 57.7031 0.453125C58.0634 0.0928788 58.5222 5.12378e-05 58.8896 0V1L58.7402 1.00977C58.4134 1.05635 58.25 1.2663 58.25 1.63965V45.1602L58.2598 45.3096ZM63.7539 0V1H58.8896V0H63.7539Z" fill="#0F0F0F"/>
<path d="M7.40039 20.584L7.33984 20.5801C7.22787 20.5641 7.16443 20.4997 7.14844 20.3877L7.14355 20.3281V1.63965C7.14351 1.26654 6.9807 1.05652 6.6543 1.00977L6.50391 1V0C6.87138 0 7.33106 0.0927787 7.69141 0.453125C8.05138 0.813363 8.14353 1.27233 8.14355 1.63965V19.584H24.8955V1.63965C24.8955 1.27231 24.9886 0.813373 25.3486 0.453125C25.709 0.0927793 26.1687 0 26.5361 0V1L26.3857 1.00977C26.0593 1.05648 25.8956 1.26649 25.8955 1.63965V20.3281L25.8916 20.3877C25.873 20.5184 25.789 20.584 25.6396 20.584H7.40039ZM31.4004 0V1H26.5361V0H31.4004ZM6.50391 0V1H1.63965V0H6.50391ZM25.8955 45.1602C25.8956 45.5332 26.0593 45.7433 26.3857 45.79L26.5361 45.7998H31.4004L31.5498 45.79C31.83 45.7501 31.9903 45.5898 32.0303 45.3096L32.04 45.1602V1.63965C32.04 1.26635 31.8765 1.05638 31.5498 1.00977L31.4004 1V0C31.7678 7.30115e-05 32.2267 0.0929208 32.5869 0.453125C32.9021 0.768395 33.0125 1.15909 33.0352 1.49805L33.04 1.63965V45.1602L33.0352 45.3018C33.0125 45.6407 32.9021 46.0315 32.5869 46.3467C32.2267 46.7069 31.7678 46.7997 31.4004 46.7998H26.5361C26.1687 46.7998 25.709 46.707 25.3486 46.3467C24.9886 45.9865 24.8956 45.5275 24.8955 45.1602V26.8955H8.14355V45.1602L8.13965 45.3018C8.11699 45.6406 8.00643 46.0315 7.69141 46.3467C7.33106 46.707 6.87138 46.7998 6.50391 46.7998H1.63965C1.27223 46.7998 0.813368 46.7069 0.453125 46.3467C0.0928933 45.9864 5.90289e-05 45.5276 0 45.1602V1.63965C2.56165e-05 1.27222 0.0928915 0.81341 0.453125 0.453125C0.813372 0.0928788 1.27222 5.12378e-05 1.63965 0V1L1.49023 1.00977C1.16343 1.05635 1.00004 1.2663 1 1.63965V45.1602C1.00012 45.5865 1.2133 45.7997 1.63965 45.7998H6.50391C6.87732 45.7998 7.08718 45.6364 7.13379 45.3096L7.14355 45.1602V26.1514C7.14368 26.0023 7.20934 25.9181 7.33984 25.8994L7.40039 25.8955H25.6396C25.8102 25.8955 25.8954 25.981 25.8955 26.1514V45.1602Z" fill="#0F0F0F"/>
</svg>
